<?xml version="1.0" standalone="no"?>
<!DOCTYPE svg PUBLIC "-//W3C//DTD SVG 20010904//EN"
 "http://www.w3.org/TR/2001/REC-SVG-20010904/DTD/svg10.dtd">
<svg version="1.0" xmlns="http://www.w3.org/2000/svg"
 width="726.000000pt" height="726.000000pt" viewBox="0 0 726.000000 726.000000"
 preserveAspectRatio="xMidYMid meet">
<metadata>
Created by potrace 1.11, written by Peter Selinger 2001-2013
</metadata>
<g transform="translate(0.000000,726.000000) scale(0.100000,-0.100000)"
fill="#000000" stroke="none">
<path d="M3450 5462 c-7 -3 -10 -305 -10 -882 l0 -878 -280 -279 -280 -280 -2
741 -3 741 -24 38 c-47 76 -156 111 -239 76 -18 -8 -169 -151 -352 -334 -225
-225 -320 -314 -321 -300 0 11 -1 268 -1 570 l0 550 -182 0 c-99 0 -186 -3
-191 -7 -7 -4 -10 -264 -9 -760 l0 -753 -282 -284 -282 -284 0 794 c0 437 -1
801 -1 809 -1 13 -28 15 -191 15 l-190 0 2 -1065 c3 -1025 4 -1066 22 -1103
36 -73 141 -116 226 -93 27 7 110 85 363 335 180 179 328 323 328 321 1 -3 2
-259 3 -570 l1 -565 188 0 c159 0 188 2 191 15 3 8 4 352 4 764 l-1 748 280
280 280 280 0 -729 c0 -401 4 -741 8 -754 31 -102 171 -162 265 -114 19 10
178 161 352 335 l318 318 0 -684 0 -684 190 0 c174 0 190 1 191 18 0 9 1 403
1 874 l0 858 280 280 c154 154 281 280 281 280 1 0 2 -334 2 -743 l0 -742 24
-36 c34 -50 85 -82 140 -89 95 -12 103 -6 450 341 175 175 320 319 322 319 2
0 4 -252 4 -561 0 -308 2 -564 5 -568 8 -11 364 -8 372 3 3 5 6 349 6 763 l0
754 275 274 c151 151 277 275 280 275 2 0 5 -352 5 -782 0 -431 1 -792 1 -803
1 -19 8 -20 189 -19 l187 1 0 1070 0 1071 -30 43 c-16 23 -47 51 -68 62 -49
25 -133 26 -173 2 -16 -10 -172 -160 -346 -334 -264 -262 -318 -312 -318 -291
-1 14 -2 270 -3 570 l-2 545 -190 0 -190 0 0 -762 0 -763 -275 -275 c-151
-151 -277 -275 -280 -275 -3 0 -5 325 -5 722 0 530 -3 731 -12 756 -35 104
-168 156 -266 105 -18 -9 -165 -149 -328 -312 -163 -163 -306 -304 -317 -314
-20 -18 -20 -17 -20 640 0 362 -1 672 -1 688 l-1 30 -180 0 c-99 0 -185 -1
-190 -3z"/>
<path d="M156 3709 c-87 -21 -156 -111 -156 -205 1 -226 300 -297 402 -96 45
89 29 180 -44 248 -18 18 -42 36 -54 42 -31 16 -104 22 -148 11z"/>
<path d="M6982 3706 c-119 -41 -180 -181 -127 -291 27 -55 47 -76 103 -104 88
-45 212 -12 268 72 25 37 29 51 29 118 0 66 -4 81 -28 117 -15 23 -45 53 -67
67 -45 29 -128 39 -178 21z"/>
</g>
</svg>
