<svg id="Layer_1" data-name="Layer 1" xmlns="http://www.w3.org/2000/svg" viewBox="0 0 510.94 204.85"><defs><style>.cls-1{fill:#fff;}</style></defs><path class="cls-1" d="M229.61,122.17h17.52a348.45,348.45,0,0,0,14.34,71.2l.64.08a20,20,0,0,0,.8-1.92q8.18-27.33,16.35-54.64c1.17-3.88.19-3.13,4.34-3.2,2.67-.05,5.34.06,8,0,1.29,0,1.82.43,2.19,1.65q7.08,23.91,14.26,47.8c.91,3,1.82,6,2.75,9.06a2.37,2.37,0,0,0,.93,1.2A338,338,0,0,0,326,122.19h17.46c-.22,2.73-.33,5.37-.65,8a299.48,299.48,0,0,1-20.19,78.24,2.56,2.56,0,0,1-2.81,1.84c-5.34-.06-10.68-.09-16,0-1.5,0-2.05-.52-2.46-1.88q-6.94-23.3-14-46.56c-.12-.38-.3-.74-.66-1.64a14.33,14.33,0,0,0-1.05,2c-4.67,15.22-9.35,30.45-13.92,45.71-.55,1.83-1.35,2.38-3.21,2.33-4.91-.12-9.84-.12-14.75,0a3.33,3.33,0,0,1-3.75-2.42,298.13,298.13,0,0,1-14.24-45.13A288.71,288.71,0,0,1,229.63,126C229.51,124.82,229.61,123.62,229.61,122.17Z" transform="translate(-4.41 -7.55)"/><path class="cls-1" d="M449.76,46.74c.08-1.59.18-2.59.18-3.6,0-10.12,0-20.23,0-30.35,0-3.62-.34-3.06,3.19-3.09,4.28,0,8.55,0,13,0v88H450.51v-8.9c-.53.34-.82.42-.94.61-5.78,9-14.4,11-24.11,9.29-10.73-1.89-16.78-9.21-19.51-19.25-2.65-9.77-2.27-19.52,2.4-28.72,8.33-16.4,29.08-16.26,38.06-7.57C447.44,44.13,448.37,45.23,449.76,46.74Zm1,22.3c-.32-2.55-.43-4.3-.78-6-1.19-6-5.83-10.54-11.32-11.26-7.37-1-12.86,1.46-15.64,7.15a21.85,21.85,0,0,0-1.33,15c1.56,6.55,6.11,10.51,12.4,11.1,6.66.63,12.12-2.29,14.78-8.41C450,74.05,450.3,71.11,450.79,69Z" transform="translate(-4.41 -7.55)"/><path class="cls-1" d="M234.28,77.38c3.12,1.68,5.83,3.43,8.76,4.69,6.18,2.66,12.67,3.82,19.32,2.17a9.85,9.85,0,0,0,5-16.51,33,33,0,0,0-7-5.25C254.7,59,248.64,56,243.3,52.09c-10.77-7.94-13.53-21.94-6.84-33,4-6.66,10.46-9.81,17.88-11a42.9,42.9,0,0,1,26.38,4.16,2.43,2.43,0,0,1,1.57,3.1c-.75,4.06-1.33,8.14-2,12.58-.87-.44-1.52-.76-2.15-1.1A33.46,33.46,0,0,0,257,23c-3.42.51-6.16,2.22-7.07,5.78s-.33,7.23,2.62,9.86a42.75,42.75,0,0,0,6.65,4.75c4.35,2.58,8.89,4.82,13.2,7.45,5,3.06,9.44,6.82,11.94,12.37,7,15.52-1.37,32-18.28,35.7a42.39,42.39,0,0,1-32.72-5.71,2.51,2.51,0,0,1-1.09-1.9C232.79,86.74,233.54,82.17,234.28,77.38Z" transform="translate(-4.41 -7.55)"/><path class="cls-1" d="M401.64,188c1,3.41,2.69,5.94,5.63,7.53,5.07,2.75,10.58,2.86,16,1.93,5.12-.88,10.11-2.53,15.24-3.87a4.85,4.85,0,0,1,0,1.1c-.45,2.76-1.27,5.52-1.33,8.29-.07,3.67-2.05,5-5.18,5.92-8,2.4-16,3.59-24.29,2-12.27-2.37-20.1-9.55-22.67-21.88-1.86-8.9-1.35-17.7,3.58-25.64,6.84-11,17.38-14.53,29.7-13.46,15.48,1.33,23.48,12.95,23.83,28.08.12,5.25.14,5.33-5,5.93-11.08,1.3-22.17,2.5-33.25,3.75C403.27,187.73,402.65,187.84,401.64,188Zm-.83-12.13c.42.18.55.29.67.28,7.74-.83,15.49-1.65,23.22-2.56a1.71,1.71,0,0,0,.94-1.37c-.45-2.68-1.41-5.18-3.67-6.88-4.23-3.19-8.87-3.26-13.55-1.28C403.31,166.22,401.62,170.74,400.81,175.86Z" transform="translate(-4.41 -7.55)"/><path class="cls-1" d="M343.63,55c.78-4.64,1.51-9.05,2.31-13.44.05-.3.51-.65.85-.76,10.44-3.58,21.09-5,31.83-1.77,8.72,2.62,12.87,9.32,13.54,18,.57,7.48.32,15,.4,22.54.05,5.84.31,11.65,2.58,17.17a3.17,3.17,0,0,1,0,.94h-15.4c-.65-3-1.3-6-2-9.11a3.63,3.63,0,0,0-.8.61c-4.4,6.49-10.88,9-18.35,9.51a23,23,0,0,1-13.57-2.89c-9-5.34-10.84-23.5,2.58-30,5.39-2.63,11.15-3.19,16.95-3.76,3.35-.32,6.71-.68,10.07-.93,1.34-.1,1.62-.66,1.45-1.91-.76-5.41-3.71-7.88-10-8.15a50,50,0,0,0-21,3.62C344.77,54.76,344.37,54.82,343.63,55ZM376,71.69c-5.77.85-11.38,1.65-17,2.52a5.37,5.37,0,0,0-1.71.78c-2.55,1.43-2.9,3.8-2.61,6.37a5,5,0,0,0,3.84,4.53C365.8,87.88,376.85,83.74,376,71.69Z" transform="translate(-4.41 -7.55)"/><path class="cls-1" d="M469.9,210.07h-16V151.24h14.82v10.21a11.76,11.76,0,0,0,1.11-1.38c4.13-8.26,13.83-11.4,22-10.16,10.68,1.62,17.07,8.65,18.48,20.1a51.72,51.72,0,0,1,.38,6.09c0,10.4,0,20.8,0,31.19V210h-16.4V207.7c0-9.83,0-19.67,0-29.5a28.58,28.58,0,0,0-.61-6.06c-.9-3.95-3.07-6.92-7.28-7.83-4.76-1-9.11-.35-12.56,3.41-2.87,3.13-3.75,7-3.77,11.1,0,9.55,0,19.11-.05,28.66C470,208.3,470,209.12,469.9,210.07Z" transform="translate(-4.41 -7.55)"/><path class="cls-1" d="M511.87,97.79c-5.76,0-11.44.06-17.11-.08-.72,0-1.6-1-2.08-1.77A42.71,42.71,0,0,1,486,76c-.49-6.85-.4-13.74-.56-20.61,0-.89,0-1.79,0-2.92-3,0-5.69-.07-8.4,0-1.52.05-2.1-.39-2.05-2,.12-3.78,0-7.57,0-11.6h10.39V21.37h16.14V38.72h13.83c-.75,4.43-1.4,8.62-2.22,12.77-.08.42-1.14.89-1.75.92-2.39.1-4.78,0-7.17,0h-2.49c-.89,15.63-.68,30.77,9.56,43.71a6.37,6.37,0,0,1,.58.88C511.92,97.12,511.87,97.28,511.87,97.79Z" transform="translate(-4.41 -7.55)"/><path class="cls-1" d="M329.52,97.78c-6.28,0-11.82,0-17.37-.06a3.13,3.13,0,0,1-2-1.4A43.58,43.58,0,0,1,303,74.79c-.43-6.51-.33-13.05-.46-19.58,0-.83,0-1.67,0-2.74H292.37V38.82h10.1V21.39h16.2V38.75h13.84c-.79,4.65-1.54,9-2.32,13.64H318.67c0,8.1-.42,16,.87,23.85S324.66,90.93,329.52,97.78Z" transform="translate(-4.41 -7.55)"/><path class="cls-1" d="M356.06,151.2h16v58.88h-16Z" transform="translate(-4.41 -7.55)"/><path class="cls-1" d="M374.54,131.47c0,5.93-4.41,10.18-10.51,10.16s-10.57-4.33-10.52-10.38,4.34-9.86,10.95-9.83C370.4,121.45,374.56,125.59,374.54,131.47Z" transform="translate(-4.41 -7.55)"/><path class="cls-1" d="M77.49,51.56a3.86,3.86,0,0,1,.09.49c.17,1.86.19,18.2,0,20.2a8.49,8.49,0,0,1-.81.65,33.71,33.71,0,0,1-10.19,4.78,27.2,27.2,0,0,1-2.69.53c-1.62.22-3.24.42-4.86.58a46.55,46.55,0,0,1-5.9.3l-3,0a23.07,23.07,0,0,1-5.36-.6q-2.31-.61-4.59-1.32a15.43,15.43,0,0,1-4.92-2.84,14.89,14.89,0,0,1-3.06-3.13c-.13-.18-.31-.34-.5-.55a4.4,4.4,0,0,0-.53.53,8.51,8.51,0,0,1-5.31,3.17,15.12,15.12,0,0,1-4.75.34,31.79,31.79,0,0,1-4.25-.5,11.61,11.61,0,0,1-6.31-3.29A10.84,10.84,0,0,1,7.7,65.12a13.06,13.06,0,0,1,.15-5.06,24.41,24.41,0,0,1,3.29-7.86A10.46,10.46,0,0,1,16,48.05a13.87,13.87,0,0,1,5.53-1.18,12,12,0,0,1,4.15.92,14.11,14.11,0,0,1,5,3A2.13,2.13,0,0,0,31,51a1.28,1.28,0,0,0,.34-.85c.4-2.83.78-5.66.91-8.52.17-3.4.18-6.8.12-10.2,0-2.28-.2-4.55-.33-6.83-.06-1.19-.13-2.38-.25-3.56-.21-2-.44-4.06-.73-6.07-.19-1.28-.51-2.53-.77-3.8a1.31,1.31,0,0,1,0-.28,76,76,0,0,1,8.05-.1,1.42,1.42,0,0,1,.49.86c.27,1,.54,1.9.75,2.86.28,1.29.52,2.6.75,3.9a45.41,45.41,0,0,1,.55,5.07c.1,1.56.13,3.13.27,4.68a38.23,38.23,0,0,1,.12,4.9c-.1,2.82-.2,5.65-.43,8.46-.21,2.43-.56,4.86-.93,7.28-.5,3.29-1.09,6.57-1.62,9.86a13.15,13.15,0,0,0-.21,2.94,42.35,42.35,0,0,0,.36,4.78,14.65,14.65,0,0,0,.5,2.08A8.4,8.4,0,0,0,44.77,74a14.28,14.28,0,0,0,5.64.54A31.83,31.83,0,0,0,64,69.7a52.54,52.54,0,0,0,4.81-3.44,16.31,16.31,0,0,0,4.08-4.79,43.35,43.35,0,0,0,4.21-9.37c0-.19.14-.37.21-.56Zm-59,16.85c0,.62,0,1.23,0,1.84a5.51,5.51,0,0,0,.26,1.19.51.51,0,0,0,.67.29A2.47,2.47,0,0,0,20.46,71a10,10,0,0,0,2.17-3.77c.45-1.38.92-2.77,1.39-4.15a39.67,39.67,0,0,0,1.78-6.79,13.21,13.21,0,0,0,.29-2.94,2.59,2.59,0,0,0-.22-.87.88.88,0,0,0-1.44-.34A5.55,5.55,0,0,0,23,53.49a20,20,0,0,0-1.87,3.27,31.74,31.74,0,0,0-1.81,5.62A22,22,0,0,0,18.46,68.41Z" transform="translate(-4.41 -7.55)"/><path class="cls-1" d="M158,59.21a14,14,0,0,1,.13-3.06,9.67,9.67,0,0,1,2.16-.27c2.55,0,5.1-.06,7.65.16a2.64,2.64,0,0,1,2.41,2.57c0,.88-.09,1.77-.17,2.65-.15,1.65-.34,3.31-.49,5-.22,2.27-.42,4.53-.63,6.8a2,2,0,0,1-.09.5,22.46,22.46,0,0,0-.69,3.8,7.57,7.57,0,0,1-.37,1.6,4.88,4.88,0,0,1-.61.08c-5.95,0-11.91,0-17.86,0-3.67,0-7.34.2-11,.16-5.68,0-11.36.19-17,0-6.87-.24-13.73-.08-20.6-.15h-1a2.27,2.27,0,0,1-.14-.52c0-2.08,0-4.15,0-6.23a.49.49,0,0,1,0-.14,15.68,15.68,0,0,0,1.68-1.2,8,8,0,0,0,2.33-4,23.73,23.73,0,0,0,.58-3.93c.24-3,.45-6.1.47-9.17,0-3.67.11-7.35.19-11,0-1.74.14-3.47.18-5.2.08-3.07-.14-6.12-.34-9.18-.06-.95-.08-1.9-.07-2.85a23.11,23.11,0,0,0-.43-4.16,7.7,7.7,0,0,0-1.31-2.85,1.81,1.81,0,0,0-.47-.39,6.29,6.29,0,0,0-2-.85l-.92-.27c-.2-2.12,0-4.22,0-6.36.28-.07.5-.14.72-.18a4.3,4.3,0,0,1,.51,0h17.65a1.53,1.53,0,0,1,1.24.28c0,.37,0,.81,0,1.25,0,1-.08,2-.14,2.95a3,3,0,0,1-.1.6.64.64,0,0,1-.57.51,7,7,0,0,1-1.12,0,9.79,9.79,0,0,0-3.32.39,6.32,6.32,0,0,0-2.8,1.59,2.14,2.14,0,0,0-.68,1.23c-.17,1.14-.35,2.29-.45,3.44-.29,3.46-.22,6.93-.23,10.4,0,2.35,0,4.7,0,7.05s.22,4.75.35,7.13c.08,1.36.16,2.72.27,4.07.16,2.1.35,4.2.53,6.3.08,1,.16,2,.27,2.95a45,45,0,0,0,1.64,8.6,4.15,4.15,0,0,0,1.25,1.93,9.8,9.8,0,0,0,3.45,1.93,15.54,15.54,0,0,0,5.29.88c4.8-.06,9.59,0,14.39-.07,3.09,0,6.19-.11,9.28-.21,1.36,0,2.71-.21,4.06-.31l1.43-.06c1.91,0,3.81-.06,5.71,0a4,4,0,0,0,2.83-1,4.76,4.76,0,0,0,1.58-2.78,19.52,19.52,0,0,0,.18-6.1,4.36,4.36,0,0,0-3.41-3.88C159,59.53,158.51,59.37,158,59.21Z" transform="translate(-4.41 -7.55)"/><path class="cls-1" d="M53.8,142.06a30.91,30.91,0,0,1,5.1.21,3.36,3.36,0,0,1,.12,1.56c-.05,1.36-.15,2.72-.16,4.07q-.06,7.15-.06,14.3c0,3.27,0,6.53.11,9.8,0,1.73.2,3.46.31,5.19.09,1.4.17,2.79.27,4.18a44.27,44.27,0,0,0,1.22,8.26,23.52,23.52,0,0,0,3,6.78,8.79,8.79,0,0,0,1.22,1.5,3.77,3.77,0,0,0,4.61.57,2.37,2.37,0,0,0,1-1.09,14.75,14.75,0,0,0,1-3.51,16,16,0,0,0,.25-2.84c0-2.62.12-5.24.1-7.86,0-4.53,0-9.06-.21-13.58-.38-9.35-.33-18.71-.34-28.07,0-.44,0-.88,0-1.33a2,2,0,0,1,.29-1,18,18,0,0,1,5.76.06,3.28,3.28,0,0,1,.13.52c0,.31,0,.62,0,.92v65.25c0,1.73,0,3.47,0,5.2a1.34,1.34,0,0,1-.64,1.25,3.16,3.16,0,0,1-.54-.15l-3.62-1.63c-.33-.16-.63-.38-1-.58,0-.83,0-1.61,0-2.39s0-1.56-.06-2.3a1.29,1.29,0,0,0-1,0,12.69,12.69,0,0,1-3.64.35,8.38,8.38,0,0,1-3.4-1,17,17,0,0,1-5.69-4.88,15.54,15.54,0,0,1-2.35-5.17,44.83,44.83,0,0,1-1.07-5.4c-.18-1.31-.38-2.62-.53-3.94-.11-.91-.17-1.83-.23-2.74-.09-1.64-.15-3.27-.25-4.9-.21-3.47-.23-6.94-.17-10.41,0-2.45.12-4.9.2-7.34.1-2.73,0-5.45,0-8.17,0-2.21,0-4.42,0-6.64,0-.64-.05-1.29-.1-1.93A1.8,1.8,0,0,1,53.8,142.06Z" transform="translate(-4.41 -7.55)"/><path class="cls-1" d="M45.54,10.47a8.43,8.43,0,0,1,1-.13c2.18,0,4.35,0,6.53,0a1.07,1.07,0,0,1,.27.06c.26.23.17.52.15.78-.12,2-.24,4.07-.39,6.1-.13,1.66-.31,3.32-.46,5-.12,1.29-.23,2.57-.34,3.86-.17,1.9-.35,3.79-.52,5.69,0,.27-.06.54-.07.81-.16,2.75-.29,5.51-.48,8.25-.17,2.55-.33,5.09-.37,7.65a21.2,21.2,0,0,0,.75,5.54,6.94,6.94,0,0,0,2.68,4.08,11.21,11.21,0,0,0,2.43,1.48,5.48,5.48,0,0,0,4.55-.06,6.23,6.23,0,0,0,2.62-2.49,13.44,13.44,0,0,0,1.54-3.86l1.23-4.84a51.41,51.41,0,0,0,1.48-7.49c.21-2.24.49-4.46.77-6.69.12-1,.31-1.94.45-2.92.12-.8.24-1.61.33-2.42.11-1.08.18-2.17.27-3.25.06-.68.12-1.36.2-2a47.64,47.64,0,0,0,.19-6.43c0-1.94.1-3.87.2-5.81,0-.6.17-.76.72-.77a43.22,43.22,0,0,1,5.8.15.92.92,0,0,1,.24.11,5.67,5.67,0,0,1,.09.65,70.94,70.94,0,0,1,0,8.87c-.12,2-.3,4.07-.52,6.1-.3,2.7-.68,5.4-1,8.09-.1.88-.16,1.76-.24,2.64a49.5,49.5,0,0,1-1.21,7.24c-.12.49-.18,1-.29,1.5-.33,1.52-.61,3.07-1,4.57a25.1,25.1,0,0,1-4,8.33c-.87,1.17-1.82,2.29-2.78,3.39a15,15,0,0,1-3.53,2.91,12.73,12.73,0,0,1-7.72,1.76,15.27,15.27,0,0,1-2.92-.44,8.85,8.85,0,0,1-3.71-2A14.22,14.22,0,0,1,46,61.53a9,9,0,0,1-1.35-3.81,29.55,29.55,0,0,1-.21-3.25q0-3.48,0-6.94c0-2.25.15-4.49.24-6.74,0-1,.08-2,.13-3.06.07-1.52.18-3,.24-4.58.08-2.07.13-4.15.19-6.22.06-1.84.14-3.68.16-5.51,0-3,0-6.06,0-9.09A6.36,6.36,0,0,1,45.54,10.47Z" transform="translate(-4.41 -7.55)"/><path class="cls-1" d="M131.68,174a3.35,3.35,0,0,0,.09-.45c0-2-.05-3.95-.08-5.92,0-.24,0-.47,0-.71q-.3-6.74-.36-13.47a3.37,3.37,0,0,0-.17-1.48,11.94,11.94,0,0,1-3.22-.37,4.2,4.2,0,0,1-.14-1.77c0-.58,0-1.16,0-1.74s0-1.21,0-1.89a4.31,4.31,0,0,1,.81-.14c2.11,0,4.21.09,6.32.15,1.56,0,3.13.1,4.69.11,2.79,0,5.58,0,8.37,0,.81,0,1.63.06,2.44.1a3,3,0,0,1,.47.09.45.45,0,0,1,0,.13.17.17,0,0,1,0,.1q-1,2.46-1.93,4.93c-1.11.14-2.16,0-3.2,0l-3.06.07c-1.06,0-2.11.08-3.16.1s-2,0-3.09,0c0,.32-.08.55-.08.78,0,2.79,0,5.58.09,8.37.05,2.11.2,4.21.31,6.32l0,.92c.08,2,.17,4.08.25,6.11a3,3,0,0,0,.06.61,2.08,2.08,0,0,1-.35,1.74c-.44.76-.89,1.53-1.28,2.32a31,31,0,0,1-2.38,3.8,2.5,2.5,0,0,1-.22.28c-.41,0-.52-.27-.69-.46q-2.74-3.17-5.47-6.34c-1.77-2.06-3.58-4.1-5.32-6.19-1.13-1.36-2.18-2.78-3.27-4.18a2.88,2.88,0,0,0-.83-.85c0,.24-.09.39-.1.55,0,.71,0,1.43,0,2.14,0,5.1,0,10.21,0,15.31,0,3.17-.09,6.33-.14,9.49a7.78,7.78,0,0,0,.09,1.88,1.4,1.4,0,0,0,1,.19c1.16,0,2.32,0,3.47,0,.71,0,1.42.12,2.22.2a2.54,2.54,0,0,1-.27.59c-.73.81-1.47,1.61-2.21,2.4-.3.33-.65.61-.91,1a1.56,1.56,0,0,1-1.35.56c-.88,0-1.77.05-2.65.05-2,0-3.94,0-5.92,0a6.43,6.43,0,0,1-2-.28c-.08-1.28,0-2.53,0-3.78a1.71,1.71,0,0,1,.15-.47c1-.18,2,0,3-.15,0-.34.07-.63.08-.93.08-3.4.18-6.79.24-10.19.12-6.88.21-13.75,0-20.62,0-1.29,0-2.59,0-3.88,0-1.9.09-3.81.16-5.71,0-1.3.14-2.58.21-3.88,0,0,.06-.11.09-.17.2-.11.32,0,.42.15,1.2,1.48,2.42,2.95,3.59,4.45q3.27,4.17,6.5,8.39c.8,1.05,1.6,2.13,2.29,3.25,1.46,2.39,3.21,4.56,4.88,6.79.33.43.68.85,1,1.27C131.34,173.85,131.48,173.89,131.68,174Z" transform="translate(-4.41 -7.55)"/><path class="cls-1" d="M104.19,140.52a18.07,18.07,0,0,1-.27,3.72,13.52,13.52,0,0,1-4.62-.17c.29-4.89.32-9.81.24-14.77a6.9,6.9,0,0,1,3,.09,1.73,1.73,0,0,1,.37,1,20.06,20.06,0,0,0,1.27,3.86,3,3,0,0,0,.44.69,18.66,18.66,0,0,0,3.31,3.45,9.65,9.65,0,0,0,4.1,2,10.68,10.68,0,0,0,3.34.23,14.79,14.79,0,0,0,4.42-1.15,6.47,6.47,0,0,0,3.37-7.54,2.24,2.24,0,0,0-.35-.73,13,13,0,0,0-6.61-5.36c-2.08-.74-4.16-1.46-6.24-2.19a19.42,19.42,0,0,1-4.22-2,13.82,13.82,0,0,1-5.15-5.8,9.2,9.2,0,0,1-.73-6.06,8.23,8.23,0,0,1,3.12-4.88c.75-.58,1.55-1.11,2.34-1.64a13.35,13.35,0,0,1,4.28-1.56,15.74,15.74,0,0,1,3.93-.44q24.54,0,49.08,0a5,5,0,0,1,1.24,0,.62.62,0,0,1,.19.71c-.32,1.49-.61,3-1,4.47s-.91,3.21-1.39,4.8a4.34,4.34,0,0,1-.28.62,26.35,26.35,0,0,1-5.54-2.08,7.19,7.19,0,0,1,.88-2.67,3.07,3.07,0,0,0,.55-1.38,1.4,1.4,0,0,0-1-.28c-.81,0-1.63,0-2.44,0h-2.76c-2.82,0-5.64,0-8.46,0-3.37.1-6.73,0-10.09-.15-1.63-.06-3.26-.06-4.9-.08-3.43,0-6.86-.1-10.3-.1a37.68,37.68,0,0,0-5,.26l-1.61.22a10.1,10.1,0,0,0-5,2.58,1.77,1.77,0,0,0-.5.75,6.13,6.13,0,0,0-.43,1.56,11.2,11.2,0,0,0,.57,5.13,2.82,2.82,0,0,0,.65,1,12,12,0,0,0,4.8,3c1.76.62,3.53,1.2,5.3,1.82.77.27,1.54.54,2.28.86a17.11,17.11,0,0,1,8.7,8.25,9,9,0,0,1-1.81,10.35,14.43,14.43,0,0,1-7.94,4.08,14.22,14.22,0,0,1-11.3-2.93c-.46-.35-.9-.73-1.34-1.1Z" transform="translate(-4.41 -7.55)"/><path class="cls-1" d="M77.49,132.2a6.41,6.41,0,0,1-4.63.26c0-.24,0-.5-.06-.77l-.18-6.22a1.31,1.31,0,0,0-.28-1c-.14-.15-.46-.14-.52,0a10.12,10.12,0,0,0-.29,1.08c-.35,1.59-.67,3.19-1.06,4.77a12.39,12.39,0,0,1-3.67,6.14,6.79,6.79,0,0,1-5.71,1.92,5.46,5.46,0,0,1-2.85-1.25,7.18,7.18,0,0,1-2.32-3.41,22.49,22.49,0,0,1-1.06-7.24,5.84,5.84,0,0,1,.29-1.8c.42-1.25.83-2.52,1.26-3.77a8.15,8.15,0,0,0,.52-3.1A1.8,1.8,0,0,0,55.09,116c-2.41-.12-4.82-.29-7.24-.19a1.64,1.64,0,0,1-1.05-.12,2.64,2.64,0,0,1-.09-.54c-.07-2.75-.12-5.51-.17-8.26a2.6,2.6,0,0,1,.1-1.16,2.8,2.8,0,0,1,.57-.08,33.65,33.65,0,0,1,4.49.18c.13,0,.27,0,.4,0,1.67.08,3.33.13,5,.24a17.88,17.88,0,0,1,3.71.63,5.67,5.67,0,0,1,2.33,1.42,2,2,0,0,1,.62,1.26,10.06,10.06,0,0,1,.11,1.73c-.1,2-.32,4-.6,6a19.13,19.13,0,0,0-.16,5.29c.1.67.14,1.35.25,2a6.32,6.32,0,0,0,1.26,2.76,2.24,2.24,0,0,0,1.35.85,1.6,1.6,0,0,0,1.72-.61,7,7,0,0,0,.73-1.23,33.38,33.38,0,0,0,2-5.67,13.26,13.26,0,0,0,.24-3.66c-.07-2-.25-3.93-.39-5.9-.08-1.08-.16-2.17-.27-3.25-.14-1.32-.32-2.63-.48-3.95-.1-.74-.21-1.48-.3-2.22a2.69,2.69,0,0,1,0-.44,3.67,3.67,0,0,1,.7-.12h5.61a2.36,2.36,0,0,1,1.34.42,1.44,1.44,0,0,1,.72,1.36c0,.68,0,1.36,0,2l-.06,8.68c0,3-.06,5.92,0,8.88,0,2.45.11,4.9.14,7.35C77.63,130.54,77.54,131.36,77.49,132.2Z" transform="translate(-4.41 -7.55)"/><path class="cls-1" d="M134.36,55.52a1.71,1.71,0,0,0,.29,1.1,28.64,28.64,0,0,0,2.65,4.46c.69,1,1.43,1.9,2.17,2.83a3.28,3.28,0,0,0,1.83,1.3A4.54,4.54,0,0,0,142,65a1.08,1.08,0,0,0,.61-1.27,5.36,5.36,0,0,0-.26-.77q-1.39-3.34-2.81-6.67a4,4,0,0,1-.22-.57.86.86,0,0,1,.42-1l7.2-5a10,10,0,0,1,.93-.62.88.88,0,0,1,1.24.31,3.73,3.73,0,0,1,.36.72,9.83,9.83,0,0,1,.74,2.85,18.2,18.2,0,0,1,.16,3.46,32.11,32.11,0,0,1-.86,5.94,9.66,9.66,0,0,1-4.74,6.11,14.06,14.06,0,0,1-5.37,1.8,5.83,5.83,0,0,1-1.72-.14,24.66,24.66,0,0,1-3.78-.79,17.64,17.64,0,0,1-6-3.52,5,5,0,0,1-.64-.66,20.36,20.36,0,0,1-4.45-8.72,17.73,17.73,0,0,1-.25-6.37c.08-.57.15-1.15.2-1.72a9,9,0,0,1,.87-2.92,21.13,21.13,0,0,1,2.54-4.17,9.6,9.6,0,0,1,5.42-3.41,11,11,0,0,1,4.75-.16c.49.1,1,.16,1.5.26a8.07,8.07,0,0,1,4,2.08,16.82,16.82,0,0,1,1.57,1.59c1,1.21,2,2.42,2.91,3.68.7,1,.65,1.2-.21,2a11,11,0,0,1-1.27,1c-.63.41-1.28.77-1.92,1.17-1.09.69-2.21,1.33-3.25,2.09C137.89,52.81,136.13,54.19,134.36,55.52Zm2.22-3.83a6,6,0,0,0-.3-.71,56.12,56.12,0,0,0-3.82-6.25,9.1,9.1,0,0,0-1-1.2,5.76,5.76,0,0,0-.95-.74.71.71,0,0,0-.82,0,2.2,2.2,0,0,0-.16,1.15,13.15,13.15,0,0,0,.22,1.4,29.26,29.26,0,0,0,3,7.21,6,6,0,0,0,.57.85,2.94,2.94,0,0,0,.4.39A11.43,11.43,0,0,0,136.58,51.69Z" transform="translate(-4.41 -7.55)"/><path class="cls-1" d="M38.32,173.42c-1.45-2.31-2.55-4.75-3.83-7.24a2.94,2.94,0,0,1,.56,0c1.17.23,2.32.55,3.49.69a18.27,18.27,0,0,0,3,.07,3.91,3.91,0,0,0,2-.72,10.72,10.72,0,0,0,4.95-6.6,3.85,3.85,0,0,0,.06-1.72,8.41,8.41,0,0,0-1.37-3.16,3.71,3.71,0,0,0-3-1.6,6.91,6.91,0,0,0-2.7.38c-.92.36-1.85.68-2.79,1a12.11,12.11,0,0,1-5.82.51,7.37,7.37,0,0,1-4-2.17,4.24,4.24,0,0,1-1.09-2.27,9.6,9.6,0,0,1,.31-5.23c.12-.35.23-.7.34-1.06a4.67,4.67,0,0,0-.31-.44A8.11,8.11,0,0,1,26.12,139a23.81,23.81,0,0,1,0-3.16,7,7,0,0,1,2.58-5.13,14.51,14.51,0,0,1,7-3.18q2-.35,3.93-.57a11.84,11.84,0,0,1,3.75.27,3.76,3.76,0,0,0,1.7-.07c1.64-.44,3.29-.81,4.94-1.19a5.29,5.29,0,0,1,.81-.08,22.59,22.59,0,0,1,1.4,3.57,4,4,0,0,1-1.58.74c-.58.14-1,.51-1.62.66.13.3.19.49.28.66a14.05,14.05,0,0,1,1.36,3.94,10.13,10.13,0,0,1-.14,4.45,7.55,7.55,0,0,1-2,3.29,13.64,13.64,0,0,1-8.24,4.08,14,14,0,0,1-7.57-1c-.34-.14-.7-.23-1.07-.35a3,3,0,0,0-.66,1.7,2.88,2.88,0,0,0,1.11,3,4.57,4.57,0,0,0,3.78,1.1,11.93,11.93,0,0,0,2.36-.64,36.68,36.68,0,0,1,5.36-1.59,7,7,0,0,1,7.63,3.45,6,6,0,0,1,.64,1.6c.23.88.38,1.79.53,2.7a14.36,14.36,0,0,1-.59,6.54,20.89,20.89,0,0,1-.9,2.39,9,9,0,0,1-.8,1.42,15,15,0,0,1-4.14,4,11.56,11.56,0,0,1-4.06,1.57,17.11,17.11,0,0,1-2.11.33A10.22,10.22,0,0,1,38.32,173.42Zm-4.64-30.58a1.49,1.49,0,0,0,.28.23,9.15,9.15,0,0,0,3.91,1,13.08,13.08,0,0,0,2.33-.19,10,10,0,0,0,5-2.19,4.55,4.55,0,0,0,1.53-2.45,10.44,10.44,0,0,0,0-4.75,4.75,4.75,0,0,0-3.24-3.73,8.68,8.68,0,0,0-3.82-.41c-.78.09-1.54.26-2.32.32A9.73,9.73,0,0,0,32,133.17a4.15,4.15,0,0,0-1.13,1.43,6.56,6.56,0,0,0-.3,5.33,3.25,3.25,0,0,0,.44.61c.5-.47.93-.89,1.38-1.3a7.35,7.35,0,0,1,1.4-1.11,10.94,10.94,0,0,1,2.27,2.4A12.84,12.84,0,0,0,33.68,142.84Z" transform="translate(-4.41 -7.55)"/><path class="cls-1" d="M28.57,25.39a41,41,0,0,1-1.19,8.81c-.13.53-.26,1.06-.37,1.59a15.61,15.61,0,0,1-2.69,6.11,6.52,6.52,0,0,1-3.93,2.72,11.39,11.39,0,0,1-1.31.12,10.47,10.47,0,0,1-6-1.56,18,18,0,0,1-5-4.26,12.55,12.55,0,0,1-3-6.49c-.12-1.08-.37-2.14-.52-3.22a13.81,13.81,0,0,1-.14-1.82c0-1.12,0-2.25.06-3.37a10.84,10.84,0,0,1,.64-3.08,33.29,33.29,0,0,1,2.4-5.39,8.68,8.68,0,0,1,6.05-4.41,21.46,21.46,0,0,1,5.87-.39,7.74,7.74,0,0,1,2.18.48,10,10,0,0,1,3.53,2.19A7.28,7.28,0,0,1,27,16.53a44.78,44.78,0,0,1,1.38,6.36C28.52,23.83,28.53,24.79,28.57,25.39ZM13.35,25a30.25,30.25,0,0,0,1,8.88,11.06,11.06,0,0,0,2,4,4.84,4.84,0,0,0,2,1.49,2.77,2.77,0,0,0,1.5.15,1.66,1.66,0,0,0,1.44-1.13,9.88,9.88,0,0,0,.39-1.16,37.17,37.17,0,0,0,.79-8.61c0-.07,0-.14,0-.21-.12-1.56-.23-3.12-.36-4.68a18.64,18.64,0,0,0-.6-3.71,10.19,10.19,0,0,1-.22-1.1,9.05,9.05,0,0,0-1.24-3.21,2.11,2.11,0,0,0-1.59-1,7,7,0,0,0-1.12,0,2.76,2.76,0,0,0-2.2,1.11,6.92,6.92,0,0,0-.87,1.49,15.19,15.19,0,0,0-1,5.38C13.32,23.46,13.35,24.24,13.35,25Z" transform="translate(-4.41 -7.55)"/><path class="cls-1" d="M122.77,35.23a35.88,35.88,0,0,1-.14-4.55l1.1-.42a6.48,6.48,0,0,0,.09-.77c0-1.23,0-2.45-.06-3.67-.13-2.62-.09-5.24,0-7.85a4.31,4.31,0,0,0-.15-1.77l-1-.29a6.65,6.65,0,0,1-.23-2.51c0-.84,0-1.69,0-2.57a3.58,3.58,0,0,1,.61-.15c.34,0,.68,0,1,0,6.19,0,12.37,0,18.56,0a17.67,17.67,0,0,1,4,.52,3.06,3.06,0,0,1,1.18.56,6.77,6.77,0,0,1,2.66,4,5.51,5.51,0,0,1-1,4.34c-.15.23-.33.43-.48.65,0,0,0,.07,0,.12a2.63,2.63,0,0,0,1.06.55,6.56,6.56,0,0,1,2.22,1.41,5.87,5.87,0,0,1,1.77,5.39,7.25,7.25,0,0,1-5.5,6.16,19.2,19.2,0,0,1-5.22.8c-2,0-3.94,0-5.91,0-.71,0-1.42.09-2.13.14-.13,0-.27,0-.4,0a108.39,108.39,0,0,1-11.11.12,7.4,7.4,0,0,1-.81-.08A1.48,1.48,0,0,1,122.77,35.23Zm4.56-11a11.67,11.67,0,0,0-.06,2.11,17.7,17.7,0,0,0,.12,1.93,5,5,0,0,0,.25,2c.28,0,.55.07.81.08.51,0,1,0,1.53.06a35.26,35.26,0,0,0,4.48.06l8.35-.3c1.15-.05,2.3-.15,3.45-.21a1.84,1.84,0,0,0,1.34-.63,10.12,10.12,0,0,0,.82-1,1.7,1.7,0,0,0,0-2,3,3,0,0,0-.9-1,10.3,10.3,0,0,0-1.35-.72,15.56,15.56,0,0,0-4.95-1.07c-2.92-.13-5.83.08-8.75.24-.81,0-1.62.11-2.43.18S128.3,24.09,127.33,24.18Zm-.08-3.52c.44,0,.74.05,1,0l4.06-.26c.51,0,1-.07,1.53-.06,1.53,0,3.05.05,4.58.08a7.49,7.49,0,0,0,.82,0c1.28-.1,2.57-.2,3.85-.33a19.49,19.49,0,0,0,2-.36,1,1,0,0,0,.57-.38,2.07,2.07,0,0,0,.23-2,2.52,2.52,0,0,0-2-1.54,20.34,20.34,0,0,0-3.73-.46c-1.56,0-3.12.08-4.68.16-2.51.14-5,.17-7.53.26-.26,0-.52.06-.82.1a4.25,4.25,0,0,0-.09.64C127.12,17.84,127.19,19.19,127.25,20.66Z" transform="translate(-4.41 -7.55)"/><path class="cls-1" d="M138.47,107.42l-.16,3.83a4.75,4.75,0,0,0,.73.15c3.29.11,6.58.27,9.88.2.3,0,.6,0,1,0a2.21,2.21,0,0,1,.06.6c-.22,1.34-.45,2.68-.7,4-.18,1-.39,1.93-.6,2.9-.06.29-.17.57-.27.92-2.66,0-5.3.07-8-.16a6.4,6.4,0,0,0-.51,2.33c-.22,2.16-.39,4.33-.58,6.5,0,.2,0,.4,0,.61a34.16,34.16,0,0,0,.52,4,4,4,0,0,0,3.47,3.13,10.3,10.3,0,0,0,5.6-.54c1.4-.53,2.83-1,4.24-1.46.51-.17,1-.4,1.51-.6a3.28,3.28,0,0,1,.5-.1,2,2,0,0,1-.21.4c-1,1-2,2.17-3.05,3.13a22.74,22.74,0,0,1-2.91,2,23.5,23.5,0,0,1-3.54,1.79,9.48,9.48,0,0,1-3.56.77c-.72,0-1.43.06-2.14,0A10.63,10.63,0,0,1,133,139,6.49,6.49,0,0,1,131,135.3a12.84,12.84,0,0,1-.2-2.23c0-1.36,0-2.72,0-4.08,0-1.19.17-2.37.25-3.56,0-.31,0-.61,0-.92a2.19,2.19,0,0,0-.11-.42c-2-.46-4.12-.22-6.12-.34-.23-.27-.1-.44,0-.6,1.12-1.41,2.2-2.85,3.37-4.22,1.94-2.28,4-4.49,5.91-6.75,1.15-1.34,2.26-2.71,3.4-4.07A1.66,1.66,0,0,1,138.47,107.42Z" transform="translate(-4.41 -7.55)"/><path class="cls-1" d="M99.58,157.71a44.13,44.13,0,0,1,6.08.12,2.69,2.69,0,0,1,.13.64c0,.85,0,1.7,0,2.55v48.85a16,16,0,0,1-4.7,2.27,2.2,2.2,0,0,1-1.45.2,2.59,2.59,0,0,1-.12-.53c0-.3,0-.61,0-.91v-52C99.55,158.5,99.57,158.13,99.58,157.71Z" transform="translate(-4.41 -7.55)"/><path class="cls-1" d="M164.82,24.63a8.25,8.25,0,0,0-2.24.07c-.74,0-1.49,0-2.24,0a7,7,0,0,1-2.1-.13,10.8,10.8,0,0,1,0-4.6l3.21-.22,3.11-.28c.35-.84.4-1.52.33-4.5a20.48,20.48,0,0,0-4.14.11l-4,.2a2.15,2.15,0,0,1-.19-1.36,15.22,15.22,0,0,1,.11-3.1,2.09,2.09,0,0,1,1.25-.19h13.77c.37,0,.74,0,1.16.05a4.15,4.15,0,0,1,.12.72c0,2.92,0,5.85,0,8.77q0,3.16-.19,6.32c-.11,2.31-.27,4.62-.42,6.92,0,.4-.12.8-.19,1.25-.35,0-.65.07-.95.07l-13.67,0c-.16,0-.33,0-.54-.05a2.1,2.1,0,0,1-.17-.56c0-1.6,0-3.2,0-4.8a1.13,1.13,0,0,1,.07-.26,3.16,3.16,0,0,1,.64-.12c1.77,0,3.53,0,5.3,0,.37,0,.75.07,1.12.09s.6,0,.92,0a5,5,0,0,0,.12-2.24A12.55,12.55,0,0,0,164.82,24.63Z" transform="translate(-4.41 -7.55)"/><path class="cls-1" d="M41.46,105.88c0,.43.07.73.07,1a6.71,6.71,0,0,1-.06.73,5.43,5.43,0,0,1-.62.11l-2.75.1a4.48,4.48,0,0,0-.81.1,1.4,1.4,0,0,0-1,2,6.32,6.32,0,0,0,.57,1c1.59,2.33,3.3,4.58,5.07,6.78.81,1,1.56,2.06,2.34,3.09l.63.85,2.34,0c1,0,1,.09,1.05,1.06,0,.4,0,.81,0,1.22,0,.1,0,.2-.07.36a3.5,3.5,0,0,1-.66.12q-3.31,0-6.63,0c-.47,0-.94-.11-1.38-.16a5.14,5.14,0,0,1-.05-2.51c.49-.22,1.06,0,1.56-.15.2-.27,0-.47-.11-.66-.67-1.06-1.37-2.11-2.05-3.15a5.42,5.42,0,0,0-.64-.07h-9a1.2,1.2,0,0,0-1.23.69c-.88,1.65-1.8,3.28-2.7,4.92a3.2,3.2,0,0,0-.14.41c.41.3.89.08,1.34.28a1.88,1.88,0,0,1,.13.52c0,.54,0,1.09-.06,1.63a.48.48,0,0,1-.53.51c-2,.07-4.07.12-6.11.17a.6.6,0,0,1-.19-.06,6.2,6.2,0,0,1-.87-2.78c.72-.21,1.48,0,2.31-.16.17-.24.38-.54.57-.86,1.24-2.07,2.45-4.16,3.7-6.23.76-1.24,1.6-2.44,2.38-3.68s1.66-2.73,2.48-4.1c.19-.32.34-.66.5-1a3.52,3.52,0,0,0-.3-.47,13,13,0,0,0-6.52-4,5.23,5.23,0,0,0-4.39.71,2.86,2.86,0,0,0-1.34,2.28,5.11,5.11,0,0,0,.53,2.77,1.62,1.62,0,0,0,1.56,1A1.42,1.42,0,0,0,21.81,109c.07-.33,0-.7.28-1A26.56,26.56,0,0,1,25,108a3.34,3.34,0,0,1-1.77,4.13,5.87,5.87,0,0,1-2.67.55,8.25,8.25,0,0,1-1.92-.21,4.87,4.87,0,0,1-3.82-4.69,11.12,11.12,0,0,1,.17-2.23,5.35,5.35,0,0,1,3.84-4.11,9.58,9.58,0,0,1,2.71-.42,23,23,0,0,1,2.35,0,9.6,9.6,0,0,1,4.36,1.29c1,.59,2,1.23,3,1.85a7.5,7.5,0,0,0,2.83,1.1c.54.08,1.08.15,1.62.2l4,.26C40.29,105.75,40.82,105.82,41.46,105.88Zm-11.74,9.69a3.6,3.6,0,0,0,.53.11l6.6,0c.12,0,.23-.09.41-.15a3.65,3.65,0,0,0-.31-.57c-.78-1.06-1.57-2.12-2.37-3.17-.36-.46-.73-.89-1.12-1.32a2.56,2.56,0,0,0-.46-.33,49,49,0,0,0-3.15,5A2.86,2.86,0,0,0,29.72,115.57Z" transform="translate(-4.41 -7.55)"/><path class="cls-1" d="M119,26.12a1.24,1.24,0,0,1,.45,1.09c0,.92,0,1.83,0,2.75,0,1.6,0,3.2,0,4.8,0,3.67,0,7.35,0,11,0,1.33-.17,2.66-.16,4,0,3.27.14,6.53.25,9.79a17.41,17.41,0,0,0,.56,3.93,12.19,12.19,0,0,0,1.54,3.43.76.76,0,0,0,1.13.31c.27-.13.51-.33.78-.49a1.2,1.2,0,0,1,1.43.08,1.41,1.41,0,0,1,.53,1.45,3,3,0,0,1-2.7,2.39,5.23,5.23,0,0,1-2.32-.21l-.28-.11a6.29,6.29,0,0,1-4.17-4,10.94,10.94,0,0,1-.72-2.75c-.19-1.48-.34-3-.43-4.47-.13-2.24-.19-4.48-.29-6.73,0-.13,0-.27,0-.41,0-3.63-.07-7.27-.11-10.91,0-2.55-.08-5.11-.11-7.66,0-1.83-.06-3.67-.08-5.51a5.47,5.47,0,0,1,.28-1.67A14,14,0,0,1,119,26.12Z" transform="translate(-4.41 -7.55)"/><path class="cls-1" d="M170.74,55.3A8.06,8.06,0,0,1,169,53.7c-.59-.57-1.15-1.16-1.72-1.74l-1.65-1.68c-.55-.55-1.09-1.11-1.59-1.62a58.43,58.43,0,0,0-7.7.23,5.51,5.51,0,0,0-.1.74c0,1.26,0,2.52,0,3.78,0,.51,0,1-.05,1.53a4.12,4.12,0,0,1-.16.65,8,8,0,0,1-3.14,0,3,3,0,0,1-.18-.62c0-.44,0-.89,0-1.33,0-4.18,0-8.37,0-12.56,0-1.22.12-2.44.19-3.63.22-.28.51-.24.77-.25,1.67,0,3.33,0,5,0q3.72,0,7.45.09a16.48,16.48,0,0,1,2.43.2,4.12,4.12,0,0,1,3.63,4.13,6.94,6.94,0,0,1-.2,2A5.3,5.3,0,0,1,170,46.57a8.62,8.62,0,0,1-2.22,1.23c-.18.07-.35.18-.59.3.22.25.38.46.57.64,1,.87,1.9,1.76,2.89,2.59a1.27,1.27,0,0,1,.51,1.33c-.14.73-.19,1.48-.29,2.22A2.62,2.62,0,0,1,170.74,55.3ZM156.48,40a33.15,33.15,0,0,0-.07,5.16,2.55,2.55,0,0,0,.35.11c2,.11,3.93.24,5.9.22a11.89,11.89,0,0,0,3.2-.51,6.5,6.5,0,0,0,1.3-.57,1.24,1.24,0,0,0,.51-.48,2.65,2.65,0,0,0,0-2.45,2,2,0,0,0-1.83-1.25c-1.18-.05-2.37-.08-3.55-.21a42.38,42.38,0,0,0-4.78-.11A8,8,0,0,0,156.48,40Z" transform="translate(-4.41 -7.55)"/><path class="cls-1" d="M99.61,148.74c.1-.09.12-.13.15-.14a1.57,1.57,0,0,1,.3,0l5.09,0a2.34,2.34,0,0,1,.35.08,14.68,14.68,0,0,1,.1,2.81c0,.92,0,1.83,0,2.77a1.5,1.5,0,0,1-.42.13c-1.7,0-3.4,0-5.1,0a3.12,3.12,0,0,1-.45-.06,8.27,8.27,0,0,1-.09-1.92c0-.61,0-1.22,0-1.84A9.94,9.94,0,0,1,99.61,148.74Z" transform="translate(-4.41 -7.55)"/><path class="cls-1" d="M114.9,20a3.35,3.35,0,0,1,.69-.13c1.08,0,2.16,0,3.24.07.44,0,.59.18.66.62a11.17,11.17,0,0,1,0,2.83c-.05.54-.26.74-.79.72-1.11-.05-2.22-.13-3.34-.21a.66.66,0,0,1-.58-.5,1.47,1.47,0,0,1-.1-.59C114.75,21.89,114.82,21,114.9,20Z" transform="translate(-4.41 -7.55)"/></svg>